<svg xmlns="http://www.w3.org/2000/svg" data-v-1084b650="" viewBox="0 0 360 90">
    <!-- <rect width="360px" height="90px" x="0" y="0" fill="#ffffff" class="logo-background-square" data-v-1084b650=""/> -->
    <g id="ef5379c2-9e5d-c6c7-ab17-38db0eafba57" fill="#000000" data-v-1084b650="" transform="matrix(4.739336550013062,0,0,4.739336550013062,100.01895548697405,-1.5876798323943504)">
        <path d="M7.13 6.44C7.04 6.44 6.96 6.52 6.96 6.62L6.96 6.62L6.96 8.32C6.44 7.22 5.33 6.44 4.07 6.44C2.28 6.44 0.84 7.98 0.84 9.87C0.84 11.75 2.28 13.30 4.07 13.30C5.33 13.30 6.44 12.52 6.96 11.41L6.96 12.91C6.96 14.50 5.67 15.78 4.07 15.81C3.61 15.81 3.21 15.69 2.81 15.50C2.72 15.47 2.62 15.50 2.58 15.58C2.53 15.67 2.56 15.76 2.65 15.82C3.09 16.03 3.56 16.16 4.07 16.16C5.87 16.16 7.31 14.70 7.31 12.91L7.31 6.62C7.31 6.52 7.24 6.44 7.13 6.44ZM6.96 9.87C6.96 11.58 5.66 12.94 4.07 12.94C2.49 12.94 1.19 11.58 1.19 9.87C1.19 8.16 2.49 6.79 4.07 6.79C5.66 6.79 6.96 8.16 6.96 9.87L6.96 9.87ZM10.56 13.12C10.56 13.22 10.63 13.30 10.74 13.30C10.82 13.30 10.91 13.22 10.91 13.12L10.91 6.61C10.91 6.50 10.82 6.44 10.74 6.44C10.63 6.44 10.56 6.50 10.56 6.61ZM10.56 4.75C10.56 4.83 10.63 4.91 10.74 4.91C10.82 4.91 10.91 4.83 10.91 4.75L10.91 4.41C10.91 4.30 10.82 4.23 10.74 4.23C10.63 4.23 10.56 4.30 10.56 4.41ZM16.59 6.44L15.47 6.44L15.47 3.70C15.47 3.60 15.39 3.51 15.29 3.51C15.19 3.51 15.12 3.60 15.12 3.70L15.12 3.70L15.12 6.44L13.94 6.44C13.85 6.44 13.76 6.52 13.76 6.62C13.76 6.72 13.85 6.79 13.94 6.79L15.12 6.79L15.12 12.25C15.12 12.84 15.60 13.31 16.18 13.31C16.28 13.31 16.37 13.23 16.37 13.13C16.37 13.03 16.28 12.96 16.18 12.96C15.79 12.96 15.47 12.64 15.47 12.25L15.47 6.79L16.59 6.79C16.69 6.79 16.77 6.72 16.77 6.62C16.77 6.52 16.69 6.44 16.59 6.44ZM19.84 8.54L19.84 8.54L23.03 8.54L23.03 8.54C23.11 8.54 23.16 8.50 23.16 8.41L23.16 8.41C23.16 8.33 23.11 8.26 23.03 8.26L19.84 8.26L19.84 8.26C19.75 8.26 19.70 8.33 19.70 8.41L19.70 8.41C19.70 8.50 19.75 8.54 19.84 8.54ZM25.79 13.12C25.79 13.22 25.86 13.30 25.97 13.30C26.05 13.30 26.14 13.22 26.14 13.12L26.14 11.42C26.68 12.53 27.80 13.30 29.09 13.30C30.94 13.30 32.42 11.75 32.42 9.86C32.42 7.98 30.94 6.44 29.09 6.44C27.80 6.44 26.68 7.21 26.14 8.33L26.14 3.71C26.14 3.61 26.05 3.50 25.97 3.50C25.86 3.50 25.79 3.61 25.79 3.71L25.79 9.72L25.79 9.86L25.79 10.02ZM26.14 9.73C26.19 8.09 27.52 6.79 29.09 6.79C30.73 6.79 32.07 8.16 32.07 9.86C32.07 11.56 30.73 12.95 29.09 12.95C27.48 12.95 26.14 11.56 26.14 9.86ZM35.13 13.12L35.13 13.12C35.13 13.22 35.20 13.30 35.31 13.30L35.31 13.30C35.41 13.30 35.48 13.22 35.48 13.12L35.48 3.68L35.48 3.68C35.48 3.58 35.41 3.50 35.31 3.50L35.31 3.50C35.20 3.50 35.13 3.58 35.13 3.68L35.13 13.12ZM38.19 9.87L38.19 9.87C38.19 11.75 39.63 13.30 41.43 13.30L41.43 13.30C43.22 13.30 44.67 11.75 44.67 9.87L44.67 9.87C44.67 7.98 43.22 6.44 41.43 6.44L41.43 6.44C39.63 6.44 38.19 7.98 38.19 9.87ZM38.54 9.87L38.54 9.87C38.54 8.16 39.84 6.79 41.43 6.79L41.43 6.79C43.01 6.79 44.32 8.16 44.32 9.87L44.32 9.87C44.32 11.56 43.01 12.95 41.43 12.95L41.43 12.95C39.84 12.95 38.54 11.56 38.54 9.87ZM53.09 6.44C53.00 6.44 52.92 6.52 52.92 6.62L52.92 6.62L52.92 8.32C52.40 7.22 51.30 6.44 50.04 6.44C48.24 6.44 46.80 7.98 46.80 9.87C46.80 11.75 48.24 13.30 50.04 13.30C51.30 13.30 52.40 12.52 52.92 11.41L52.92 12.91C52.92 14.50 51.63 15.78 50.04 15.81C49.57 15.81 49.17 15.69 48.78 15.50C48.68 15.47 48.58 15.50 48.54 15.58C48.50 15.67 48.52 15.76 48.61 15.82C49.06 16.03 49.52 16.16 50.04 16.16C51.83 16.16 53.27 14.70 53.27 12.91L53.27 6.62C53.27 6.52 53.20 6.44 53.09 6.44ZM52.92 9.87C52.92 11.58 51.62 12.94 50.04 12.94C48.45 12.94 47.15 11.58 47.15 9.87C47.15 8.16 48.45 6.79 50.04 6.79C51.62 6.79 52.92 8.16 52.92 9.87L52.92 9.87Z"/>
    </g>
    <linearGradient id="d999a026-5583-39b7-921a-d5947b8bdc6e" x1="0%" x2="100%" y1="0%" y2="0%" data-v-1084b650="" gradientTransform="rotate(25)">
        <stop data-v-1084b650="" offset="0%" style="stop-color:rgb(0, 21, 214);stop-opacity:1"/>
        <stop data-v-1084b650="" offset="100%" style="stop-color:rgb(9, 137, 251);stop-opacity:1"/>
    </linearGradient>
    <g id="035ca3fe-3a73-62e9-8542-13ce4914d306" fill="url(#d999a026-5583-39b7-921a-d5947b8bdc6e)" stroke="none" data-v-1084b650="" transform="matrix(0.9,0,0,0.9,-115,5)">
<!--?xml version="1.0" encoding="utf-8"?-->
        <svg xmlns="http://www.w3.org/2000/svg" xmlns:cc="http://creativecommons.org/ns#" xmlns:dc="http://purl.org/dc/elements/1.1/" xmlns:inkscape="http://www.inkscape.org/namespaces/inkscape" xmlns:rdf="http://www.w3.org/1999/02/22-rdf-syntax-ns#" xmlns:sodipodi="http://sodipodi.sourceforge.net/DTD/sodipodi-0.dtd" xmlns:svg="http://www.w3.org/2000/svg" xmlns:xlink="http://www.w3.org/1999/xlink" x="0px" y="0px" enable-background="new 0 0 100 100" version="1.1" viewBox="0 0 100 100" xml:space="preserve">
            <path d="M50,0C22.386,0,0,22.386,0,50s22.386,50,50,50s50-22.386,50-50S77.614,0,50,0z M50,14.156
	c19.799,0,35.844,16.044,35.844,35.844c0,19.799-16.045,35.844-35.844,35.844c-19.799,0-35.844-16.045-35.844-35.844
	C14.156,30.201,30.201,14.156,50,14.156z"/>
        </svg>
    </g>
</svg>
